<svg width="191" height="55" viewBox="0 0 191 55" fill="none" xmlns="http://www.w3.org/2000/svg">
<path opacity="0.9" d="M28.2371 20.7498H33.5331C34.9197 20.7498 35.9811 21.1178 36.7171 21.8538C37.0797 22.2165 37.3571 22.6378 37.5491 23.1178C37.7517 23.5871 37.8531 24.1151 37.8531 24.7018C37.8531 25.2671 37.7571 25.7845 37.5651 26.2538C37.3837 26.7231 37.1171 27.1285 36.7651 27.4698C36.4237 27.8005 36.0077 28.0618 35.5171 28.2538C35.0264 28.4351 34.4717 28.5258 33.8531 28.5258H31.0051V32.6538H28.2371V20.7498ZM31.0051 26.3658H33.3251C33.9011 26.3658 34.3384 26.2165 34.6371 25.9178C34.9464 25.6191 35.1011 25.2138 35.1011 24.7018C35.1011 24.1791 34.9464 23.7791 34.6371 23.5018C34.3384 23.2138 33.9064 23.0698 33.3411 23.0698H31.0051V26.3658ZM41.7658 25.6618H41.8138C42.0911 25.0645 42.4218 24.6378 42.8058 24.3818C43.1898 24.1258 43.6485 23.9978 44.1818 23.9978C44.4378 23.9978 44.6138 24.0191 44.7098 24.0618V26.2538H44.6458C44.4645 26.2218 44.2885 26.2058 44.1178 26.2058C43.4351 26.1951 42.8858 26.4031 42.4698 26.8298C42.0645 27.2458 41.8618 27.8698 41.8618 28.7018V32.6538H39.3498V24.1418H41.7658V25.6618ZM50.1881 32.9258C49.5054 32.9258 48.8867 32.8138 48.3321 32.5898C47.7774 32.3551 47.3027 32.0351 46.9081 31.6298C46.5134 31.2245 46.2094 30.7498 45.9961 30.2058C45.7827 29.6511 45.6761 29.0538 45.6761 28.4138C45.6761 27.7738 45.7827 27.1818 45.9961 26.6378C46.2094 26.0831 46.5134 25.6031 46.9081 25.1978C47.3027 24.7925 47.7774 24.4778 48.3321 24.2538C48.8867 24.0191 49.5054 23.9018 50.1881 23.9018C50.8601 23.9018 51.4734 24.0191 52.0281 24.2538C52.5827 24.4778 53.0521 24.7925 53.4361 25.1978C53.8307 25.6031 54.1347 26.0831 54.3481 26.6378C54.5614 27.1818 54.6681 27.7738 54.6681 28.4138C54.6681 29.0538 54.5614 29.6511 54.3481 30.2058C54.1347 30.7498 53.8307 31.2245 53.4361 31.6298C53.0521 32.0351 52.5827 32.3551 52.0281 32.5898C51.4734 32.8138 50.8601 32.9258 50.1881 32.9258ZM50.1721 31.1018C50.8014 31.1018 51.2814 30.8565 51.6121 30.3658C51.9534 29.8645 52.1241 29.2138 52.1241 28.4138C52.1241 27.6031 51.9534 26.9471 51.6121 26.4458C51.2814 25.9445 50.8014 25.6938 50.1721 25.6938C49.5321 25.6938 49.0467 25.9445 48.7161 26.4458C48.3854 26.9471 48.2201 27.6031 48.2201 28.4138C48.2201 29.2138 48.3854 29.8645 48.7161 30.3658C49.0467 30.8565 49.5321 31.1018 50.1721 31.1018ZM55.1909 24.1418H57.7829L58.8229 27.5658C58.9083 27.8538 58.9883 28.1685 59.0629 28.5098C59.1483 28.8511 59.2229 29.1765 59.2869 29.4858C59.3616 29.8378 59.4309 30.1898 59.4949 30.5418H59.5429C59.6069 30.1898 59.6763 29.8378 59.7509 29.4858C59.8149 29.1765 59.8843 28.8511 59.9589 28.5098C60.0443 28.1685 60.1296 27.8538 60.2149 27.5658L61.2869 24.1418H63.8149L60.8389 32.6538H58.1349L55.1909 24.1418ZM65.0282 20.7498H67.5722V22.9418H65.0282V20.7498ZM65.0442 24.1418H67.5562V32.6538H65.0442V24.1418ZM72.7841 32.9258C72.2294 32.9258 71.7281 32.8245 71.2801 32.6218C70.8321 32.4085 70.4481 32.1098 70.1281 31.7258C69.8081 31.3311 69.5627 30.8565 69.3921 30.3018C69.2214 29.7365 69.1361 29.1018 69.1361 28.3978C69.1361 27.7471 69.2214 27.1498 69.3921 26.6058C69.5734 26.0511 69.8241 25.5765 70.1441 25.1818C70.4641 24.7765 70.8481 24.4618 71.2961 24.2378C71.7547 24.0138 72.2614 23.9018 72.8161 23.9018C73.4027 23.9018 73.8987 24.0298 74.3041 24.2858C74.7094 24.5311 75.0561 24.8778 75.3441 25.3258H75.3761C75.3547 25.0591 75.3387 24.7551 75.3281 24.4138C75.3174 24.0725 75.3121 23.7205 75.3121 23.3578V20.7498H77.8241V32.6538H75.4081V31.4058H75.3761C75.1307 31.9285 74.7787 32.3125 74.3201 32.5578C73.8721 32.8031 73.3601 32.9258 72.7841 32.9258ZM73.4561 30.9098C74.0641 30.9098 74.5387 30.6805 74.8801 30.2218C75.2214 29.7525 75.3921 29.1445 75.3921 28.3978C75.3921 28.0245 75.3494 27.6778 75.2641 27.3578C75.1894 27.0378 75.0721 26.7658 74.9121 26.5418C74.7521 26.3071 74.5494 26.1258 74.3041 25.9978C74.0694 25.8698 73.7921 25.8058 73.4721 25.8058C72.8747 25.8058 72.4267 26.0458 72.1281 26.5258C71.8401 26.9951 71.6961 27.6138 71.6961 28.3818C71.6961 29.1498 71.8401 29.7631 72.1281 30.2218C72.4267 30.6805 72.8694 30.9098 73.4561 30.9098ZM83.9052 32.9098C83.2119 32.9098 82.5879 32.7978 82.0332 32.5738C81.4785 32.3391 81.0039 32.0191 80.6092 31.6138C80.2252 31.2085 79.9265 30.7338 79.7132 30.1898C79.5105 29.6458 79.4092 29.0538 79.4092 28.4138C79.4092 27.7738 79.5159 27.1818 79.7292 26.6378C79.9425 26.0831 80.2412 25.6031 80.6252 25.1978C81.0092 24.7925 81.4679 24.4778 82.0012 24.2538C82.5345 24.0191 83.1265 23.9018 83.7772 23.9018C84.3852 23.9018 84.9292 23.9978 85.4092 24.1898C85.8999 24.3818 86.3319 24.6485 86.7052 24.9898C87.1852 25.4591 87.5372 26.0405 87.7612 26.7338C87.9852 27.4271 88.0919 28.1951 88.0812 29.0378H81.8732C81.9585 29.6778 82.1719 30.1791 82.5132 30.5418C82.8545 30.9045 83.3292 31.0858 83.9372 31.0858C84.3319 31.0858 84.6519 31.0165 84.8972 30.8778C85.1532 30.7285 85.3505 30.5205 85.4892 30.2538H87.9212C87.8145 30.6271 87.6439 30.9791 87.4092 31.3098C87.1852 31.6298 86.9025 31.9125 86.5612 32.1578C86.2305 32.3925 85.8412 32.5738 85.3932 32.7018C84.9452 32.8405 84.4492 32.9098 83.9052 32.9098ZM83.7772 25.6778C83.2012 25.6778 82.7639 25.8485 82.4652 26.1898C82.1665 26.5311 81.9745 26.9951 81.8892 27.5818H85.5212C85.4785 26.9845 85.3025 26.5205 84.9932 26.1898C84.6839 25.8485 84.2785 25.6778 83.7772 25.6778ZM94.0158 20.7498H96.7358V30.3178H102.224V32.6538H94.0158V20.7498ZM103.956 20.7498H106.5V22.9418H103.956V20.7498ZM103.972 24.1418H106.484V32.6538H103.972V24.1418ZM114.288 33.4538C114.288 33.0485 114.294 32.6858 114.304 32.3658C114.315 32.0351 114.331 31.7791 114.352 31.5978H114.32C114.064 32.0138 113.723 32.3391 113.296 32.5738C112.88 32.8085 112.39 32.9258 111.824 32.9258C111.248 32.9258 110.731 32.8191 110.272 32.6058C109.814 32.3925 109.419 32.0938 109.088 31.7098C108.768 31.3151 108.518 30.8405 108.336 30.2858C108.166 29.7205 108.08 29.0911 108.08 28.3978C108.08 27.7471 108.166 27.1498 108.336 26.6058C108.518 26.0511 108.768 25.5765 109.088 25.1818C109.408 24.7765 109.792 24.4618 110.24 24.2378C110.699 24.0138 111.211 23.9018 111.776 23.9018C112.918 23.9018 113.771 24.3818 114.336 25.3418H114.384V24.1418H116.784V35.4858H114.288V33.4538ZM112.4 30.9738C113.051 30.9738 113.542 30.7445 113.872 30.2858C114.203 29.8165 114.368 29.2138 114.368 28.4778C114.368 28.1151 114.326 27.7791 114.24 27.4698C114.166 27.1498 114.048 26.8778 113.888 26.6538C113.728 26.4191 113.526 26.2378 113.28 26.1098C113.046 25.9711 112.768 25.9018 112.448 25.9018C111.819 25.9018 111.355 26.1418 111.056 26.6218C110.768 27.1018 110.624 27.7205 110.624 28.4778C110.624 29.2458 110.779 29.8538 111.088 30.3018C111.398 30.7498 111.835 30.9738 112.4 30.9738ZM124.305 32.6538V31.4378H124.257C123.947 31.9391 123.59 32.3071 123.185 32.5418C122.779 32.7765 122.283 32.8938 121.697 32.8938C120.726 32.8938 119.985 32.6111 119.473 32.0458C118.961 31.4698 118.705 30.7125 118.705 29.7738V24.1418H121.217V29.2938C121.217 29.7738 121.329 30.1418 121.553 30.3978C121.787 30.6538 122.129 30.7818 122.577 30.7818C123.089 30.7818 123.489 30.6111 123.777 30.2698C124.065 29.9285 124.209 29.4911 124.209 28.9578V24.1418H126.689V32.6538H124.305ZM128.651 20.7498H131.195V22.9418H128.651V20.7498ZM128.667 24.1418H131.179V32.6538H128.667V24.1418ZM136.407 32.9258C135.852 32.9258 135.351 32.8245 134.903 32.6218C134.455 32.4085 134.071 32.1098 133.751 31.7258C133.431 31.3311 133.185 30.8565 133.015 30.3018C132.844 29.7365 132.759 29.1018 132.759 28.3978C132.759 27.7471 132.844 27.1498 133.015 26.6058C133.196 26.0511 133.447 25.5765 133.767 25.1818C134.087 24.7765 134.471 24.4618 134.919 24.2378C135.377 24.0138 135.884 23.9018 136.439 23.9018C137.025 23.9018 137.521 24.0298 137.927 24.2858C138.332 24.5311 138.679 24.8778 138.967 25.3258H138.999C138.977 25.0591 138.961 24.7551 138.951 24.4138C138.94 24.0725 138.935 23.7205 138.935 23.3578V20.7498H141.447V32.6538H139.031V31.4058H138.999C138.753 31.9285 138.401 32.3125 137.943 32.5578C137.495 32.8031 136.983 32.9258 136.407 32.9258ZM137.079 30.9098C137.687 30.9098 138.161 30.6805 138.503 30.2218C138.844 29.7525 139.015 29.1445 139.015 28.3978C139.015 28.0245 138.972 27.6778 138.887 27.3578C138.812 27.0378 138.695 26.7658 138.535 26.5418C138.375 26.3071 138.172 26.1258 137.927 25.9978C137.692 25.8698 137.415 25.8058 137.095 25.8058C136.497 25.8058 136.049 26.0458 135.751 26.5258C135.463 26.9951 135.319 27.6138 135.319 28.3818C135.319 29.1498 135.463 29.7631 135.751 30.2218C136.049 30.6805 136.492 30.9098 137.079 30.9098ZM143.416 20.7498H145.96V22.9418H143.416V20.7498ZM143.432 24.1418H145.944V32.6538H143.432V24.1418ZM147.428 24.1418H148.708V21.4218H151.172V24.1418H152.836V25.7418H151.172V29.9658C151.172 30.2858 151.252 30.5045 151.412 30.6218C151.582 30.7285 151.817 30.7818 152.116 30.7818C152.201 30.7818 152.297 30.7818 152.404 30.7818C152.51 30.7711 152.606 30.7605 152.692 30.7498H152.82V32.6218C152.681 32.6431 152.489 32.6698 152.244 32.7018C151.998 32.7338 151.705 32.7498 151.364 32.7498C150.969 32.7498 150.606 32.7178 150.276 32.6538C149.956 32.5791 149.678 32.4565 149.444 32.2858C149.209 32.1045 149.028 31.8751 148.9 31.5978C148.772 31.3098 148.708 30.9471 148.708 30.5098V25.7418H147.428V24.1418ZM156.553 35.5018C156.531 35.5018 156.435 35.5018 156.265 35.5018C156.094 35.5018 155.907 35.4965 155.705 35.4858C155.502 35.4858 155.315 35.4805 155.145 35.4698C154.974 35.4698 154.883 35.4698 154.873 35.4698V33.5018H155.001C155.011 33.5018 155.054 33.5018 155.129 33.5018C155.214 33.5125 155.305 33.5178 155.401 33.5178C155.497 33.5178 155.582 33.5178 155.657 33.5178C155.742 33.5178 155.795 33.5178 155.817 33.5178C156.574 33.5178 156.979 33.2298 157.033 32.6538C157.033 32.5045 156.995 32.2805 156.921 31.9818C156.846 31.6725 156.734 31.3258 156.585 30.9418L153.945 24.1418H156.585L157.673 27.4058C157.769 27.6938 157.859 28.0138 157.945 28.3658C158.03 28.7071 158.105 29.0271 158.169 29.3258C158.243 29.6778 158.313 30.0245 158.377 30.3658H158.409C158.483 30.0138 158.563 29.6618 158.649 29.3098C158.723 29.0111 158.803 28.6911 158.889 28.3498C158.974 28.0085 159.065 27.6938 159.161 27.4058L160.201 24.1418H162.697L159.657 32.8618C159.486 33.3525 159.305 33.7631 159.113 34.0938C158.921 34.4351 158.702 34.7071 158.457 34.9098C158.211 35.1231 157.934 35.2725 157.625 35.3578C157.315 35.4538 156.958 35.5018 156.553 35.5018Z" fill="white"/>
<rect x="1.5" y="2.15381" width="188" height="51" rx="9.5" stroke="url(#paint0_angular_17_982)" stroke-width="3"/>
<defs>
<radialGradient id="paint0_angular_17_982" cx="0" cy="0" r="1" gradientUnits="userSpaceOnUse" gradientTransform="translate(95.5 27.8824) rotate(90) scale(22.7714 48.0201)">
<stop offset="0.000772753" stop-color="#002DFF"/>
<stop offset="0.295366" stop-color="#000A35" stop-opacity="0"/>
<stop offset="0.497477" stop-color="#00092F" stop-opacity="0"/>
<stop offset="0.499748" stop-color="#0129E3"/>
<stop offset="0.83176" stop-color="#000D4D" stop-opacity="0"/>
<stop offset="0.998966" stop-color="#000313" stop-opacity="0"/>
</radialGradient>
</defs>
</svg>
